<svg xmlns="http://www.w3.org/2000/svg" viewBox="0 0 300 100" fill="none"><path d="M24 69L274 31" stroke="#6b5140" stroke-width="5"/><path d="M278 29L263 24L266 38Z" fill="#365961"/><path d="M34 67L18 47L68 40L83 59M34 70L25 91L75 84L83 62" fill="#efdfbf" stroke="#a7865a" stroke-width="2"/><path d="M32 50L46 65M49 46L63 62M43 72L38 86M60 69L55 83" stroke="#bd9b68" stroke-width="2"/><path d="M119 58c-12-29 17-36 11-5 18-21 32 3 3 8" stroke="#a84331" stroke-width="4"/><path d="M129 63l-1 27m4-29 14 23" stroke="#a84331" stroke-width="3"/><path d="M150 61l19 3-6 21-19-3Z" fill="#ebd5ad" stroke="#9c5136" stroke-width="2"/></svg>
