<svg xmlns="http://www.w3.org/2000/svg" width="174" height="206" viewBox="0 0 174 206"><g stroke-linecap="round" stroke-linejoin="round"><path d="M78 115v76q0 9 8 9t8-9v-76" fill="#ab6b3d" stroke="#f0e5c9" stroke-width="5"/>
<path d="M86 135C69 125 6 98 6 66 6 28 41 6 85 6s83 24 83 61c0 32-65 58-82 68Z" fill="#f0e5c9" stroke="#60392a" stroke-width="2"/>
<path d="M16 72c0-33 29-54 69-54 43 0 73 22 73 54" fill="#daac55"/>
<circle cx="85" cy="58" r="25" fill="#a43925"/><path d="M86 128L11 62" stroke="#ae7c49" stroke-width="1.5" opacity=".65"/><path d="M86 128L23 38" stroke="#ae7c49" stroke-width="1.5" opacity=".65"/><path d="M86 128L47 20" stroke="#ae7c49" stroke-width="1.5" opacity=".65"/><path d="M86 128L77 12" stroke="#ae7c49" stroke-width="1.5" opacity=".65"/><path d="M86 128L106 17" stroke="#ae7c49" stroke-width="1.5" opacity=".65"/><path d="M86 128L134 34" stroke="#ae7c49" stroke-width="1.5" opacity=".65"/><path d="M86 128L154 59" stroke="#ae7c49" stroke-width="1.5" opacity=".65"/><path d="M20 84q16-16 32 0t32 0t32 0t32 0M27 96q14-14 28 0t28 0t28 0t28 0" fill="none" stroke="#366b65" stroke-width="4"/>
<text x="86" y="62" text-anchor="middle" fill="#f0e5c9" font-family="Yu Mincho,SimSun,serif" font-weight="bold" font-size="24" >縁</text><text x="86" y="119" text-anchor="middle" fill="#5a3427" font-family="Yu Mincho,SimSun,serif" font-weight="bold" font-size="10" >いい出会い</text></g></svg>